<svg width="14" height="14" viewBox="0 0 14 14" fill="none" xmlns="http://www.w3.org/2000/svg">
<path d="M10.6 13H3.4C2.08 13 1 11.92 1 10.6V4.60001C1 3.28001 2.08 2.20001 3.4 2.20001H10.6C11.92 2.20001 13 3.28001 13 4.60001V10.6C13 11.92 11.92 13 10.6 13Z" stroke="#6249DE" stroke-width="2" stroke-miterlimit="10" stroke-linecap="round" stroke-linejoin="round"/>
<path d="M10 1V3.4" stroke="#6249DE" stroke-width="2" stroke-miterlimit="10" stroke-linecap="round" stroke-linejoin="round"/>
<path d="M4 1V3.4" stroke="#6249DE" stroke-width="2" stroke-miterlimit="10" stroke-linecap="round" stroke-linejoin="round"/>
<path d="M4.00002 6.99999C4.3314 6.99999 4.60002 6.73136 4.60002 6.39999C4.60002 6.06862 4.3314 5.79999 4.00002 5.79999C3.66865 5.79999 3.40002 6.06862 3.40002 6.39999C3.40002 6.73136 3.66865 6.99999 4.00002 6.99999Z" fill="#6249DE"/>
<path d="M10 6.99999C10.3314 6.99999 10.6 6.73136 10.6 6.39999C10.6 6.06862 10.3314 5.79999 10 5.79999C9.66865 5.79999 9.40002 6.06862 9.40002 6.39999C9.40002 6.73136 9.66865 6.99999 10 6.99999Z" fill="#6249DE"/>
<path d="M7.00002 6.99999C7.3314 6.99999 7.60002 6.73136 7.60002 6.39999C7.60002 6.06862 7.3314 5.79999 7.00002 5.79999C6.66865 5.79999 6.40002 6.06862 6.40002 6.39999C6.40002 6.73136 6.66865 6.99999 7.00002 6.99999Z" fill="#6249DE"/>
<path d="M4.00002 9.99999C4.3314 9.99999 4.60002 9.73136 4.60002 9.39999C4.60002 9.06862 4.3314 8.79999 4.00002 8.79999C3.66865 8.79999 3.40002 9.06862 3.40002 9.39999C3.40002 9.73136 3.66865 9.99999 4.00002 9.99999Z" fill="#6249DE"/>
<path d="M10 9.99999C10.3314 9.99999 10.6 9.73136 10.6 9.39999C10.6 9.06862 10.3314 8.79999 10 8.79999C9.66865 8.79999 9.40002 9.06862 9.40002 9.39999C9.40002 9.73136 9.66865 9.99999 10 9.99999Z" fill="#6249DE"/>
<path d="M7.00002 9.99999C7.3314 9.99999 7.60002 9.73136 7.60002 9.39999C7.60002 9.06862 7.3314 8.79999 7.00002 8.79999C6.66865 8.79999 6.40002 9.06862 6.40002 9.39999C6.40002 9.73136 6.66865 9.99999 7.00002 9.99999Z" fill="#6249DE"/>
</svg>
