<svg width="25" height="22" viewBox="0 0 25 22" fill="none" xmlns="http://www.w3.org/2000/svg">
<path d="M21.7559 1.82126C18.5659 -0.353738 14.6267 0.661262 12.5001 3.15043C10.3734 0.661262 6.43422 -0.365821 3.24422 1.82126C1.55255 2.98126 0.489221 4.93876 0.416721 7.00501C0.247554 11.6933 4.40422 15.4513 10.748 21.215L10.8688 21.3238C11.7871 22.1575 13.2009 22.1575 14.1192 21.3117L14.2521 21.1908C20.5959 15.4392 24.7405 11.6813 24.5834 6.99293C24.5109 4.93876 23.4476 2.98126 21.7559 1.82126ZM12.6209 19.4146L12.5001 19.5354L12.3792 19.4146C6.62755 14.2067 2.83339 10.7629 2.83339 7.27085C2.83339 4.85418 4.64589 3.04168 7.06255 3.04168C8.92339 3.04168 10.7359 4.23793 11.3763 5.89335H13.6359C14.2642 4.23793 16.0767 3.04168 17.9376 3.04168C20.3542 3.04168 22.1667 4.85418 22.1667 7.27085C22.1667 10.7629 18.3726 14.2067 12.6209 19.4146Z" fill="#6249DE"/>
</svg>
