<svg width="30" height="30" viewBox="0 0 30 30" fill="none" xmlns="http://www.w3.org/2000/svg">
<g filter="url(#filter0_f_1489_491)">
<path d="M13 21C17.4183 21 21 17.4183 21 13C21 8.58172 17.4183 5 13 5C8.58172 5 5 8.58172 5 13C5 17.4183 8.58172 21 13 21Z" stroke="#7560E3" stroke-miterlimit="10" stroke-linecap="round" stroke-linejoin="round"/>
<path d="M25 25L18.6 18.6" stroke="#7560E3" stroke-miterlimit="10" stroke-linecap="round" stroke-linejoin="round"/>
</g>
<path d="M13 21C17.4183 21 21 17.4183 21 13C21 8.58172 17.4183 5 13 5C8.58172 5 5 8.58172 5 13C5 17.4183 8.58172 21 13 21Z" stroke="#7560E3" stroke-miterlimit="10" stroke-linecap="round" stroke-linejoin="round"/>
<path d="M25 25L18.6 18.6" stroke="#7560E3" stroke-miterlimit="10" stroke-linecap="round" stroke-linejoin="round"/>
<defs>
<filter id="filter0_f_1489_491" x="0.5" y="0.5" width="29" height="29" filterUnits="userSpaceOnUse" color-interpolation-filters="sRGB">
<feFlood flood-opacity="0" result="BackgroundImageFix"/>
<feBlend mode="normal" in="SourceGraphic" in2="BackgroundImageFix" result="shape"/>
<feGaussianBlur stdDeviation="2" result="effect1_foregroundBlur_1489_491"/>
</filter>
</defs>
</svg>
